<?xml version="1.0" standalone="no"?><!DOCTYPE svg PUBLIC "-//W3C//DTD SVG 1.1//EN" "http://www.w3.org/Graphics/SVG/1.1/DTD/svg11.dtd"><svg t="1536998859292" class="icon" style="" viewBox="0 0 1024 1024" version="1.1" xmlns="http://www.w3.org/2000/svg" p-id="6992" xmlns:xlink="http://www.w3.org/1999/xlink" width="200" height="200"><defs><style type="text/css"></style></defs><path d="M977.14903 199.786189c0 18.443059-8.520397 35.526144-25.470157 51.33312-16.950784 15.851008-40.224768 29.64009-69.78007 41.408102-29.553254 11.770061-64.024781 20.902093-103.328461 27.577037-39.34464 6.588006-81.677517 9.92297-127.172506 9.92297-45.404979 0-88.001843-3.335987-127.654502-9.92297-39.698739-6.675046-74.346291-15.806976-103.899546-27.577037-29.553254-11.768013-53.00224-25.557094-70.305075-41.408102-17.344717-15.806976-25.995059-32.890061-25.995059-51.33312 0-18.353971 8.474317-35.480064 25.426125-51.28704 16.948736-15.809024 40.224768-29.772083 69.778022-41.935053 29.597286-12.120064 64.200806-21.69303 103.899546-28.674048 39.696691-7.024947 82.249523-10.451046 127.698534-10.451046 45.407027 0 88.001843 3.425997 127.700582 10.451046 39.652659 6.981018 74.300211 16.555008 103.853466 28.674048 29.555302 12.163994 52.828262 26.126029 69.78007 41.935053C968.628634 164.306125 977.14903 181.432218 977.14903 199.786189L977.14903 199.786189zM651.398963 145.77408c-27.400192 0-50.500198 4.743066-69.205914 14.316032-18.795827 9.573069-28.148224 20.990054-28.148224 34.20713s9.352397 24.459059 28.148224 33.681101c18.705818 9.132032 41.805824 13.787034 69.205914 13.787034 26.70121 0 49.622118-4.655002 68.725965-13.787034 19.101798-9.222042 28.674253-20.464128 28.674253-33.681101s-9.572352-24.633037-28.674253-34.20713C701.021082 150.517043 678.099149 145.77408 651.398963 145.77408L651.398963 145.77408zM324.64087 288.048435c20.19881 16.249037 45.80096 30.915072 76.805325 44.176179 26.699162 11.064013 60.423578 21.16608 101.175398 30.299034 40.751718 9.219994 90.022912 13.830963 147.72439 13.830963 58.404557 0 108.202701-4.61097 149.304422-13.830963 41.10377-9.13408 75.004211-19.235123 101.703373-30.299034 30.300365-13.261005 55.594394-27.92704 75.795251-44.176179l0 514.205225c0 10.275021-5.972275 22.263091-17.872794 35.876045-11.900518 13.569024-30.476288 26.654106-55.726387 39.213056-25.250099 12.469965-57.527501 22.919987-96.872141 31.397069-39.302758 8.47401-86.378803 12.688998-141.226086 12.688998-55.506432 0-104.557568-3.688038-147.1104-11.066061-42.594816-7.289037-78.296371-16.685056-107.147571-28.103066-28.851302-11.415962-50.676224-24.240128-65.430835-38.642074-14.842675-14.313984-22.219981-28.103066-22.219981-41.36407L323.542835 524.205996C323.543757 452.848845 323.892736 374.115635 324.64087 288.048435L324.64087 288.048435zM271.63648 299.114496 77.892143 299.114496l84.40064 251.569562-84.40064 251.569562 193.744361 0L271.636504 299.114448 271.63648 299.114496zM271.63648 299.114496" p-id="6993"></path></svg>